<?xml version="1.0" encoding="UTF-8"?><svg xmlns="http://www.w3.org/2000/svg" xmlns:xlink="http://www.w3.org/1999/xlink" contentScriptType="text/ecmascript" width="3582.75" zoomAndPan="magnify" contentStyleType="text/css" viewBox="0 0 3582.75 3582.75001" height="3582.75001" preserveAspectRatio="xMidYMid meet" version="1.0"><defs><clipPath id="clip-0"><path d="M 0 38 L 3545 38 L 3545 3582.5 L 0 3582.5 Z M 0 38 " clip-rule="nonzero"/></clipPath><clipPath id="clip-1"><path d="M 2366.648438 2731 L 2504 2731 L 2504 3002.007812 L 2366.648438 3002.007812 Z M 2366.648438 2731 " clip-rule="nonzero"/></clipPath><clipPath id="clip-2"><path d="M 2376 2724.507812 L 2513.648438 2724.507812 L 2513.648438 2996 L 2376 2996 Z M 2376 2724.507812 " clip-rule="nonzero"/></clipPath><clipPath id="clip-3"><path d="M 2773 1850 L 3007.457031 1850 L 3007.457031 1874 L 2773 1874 Z M 2773 1850 " clip-rule="nonzero"/></clipPath><clipPath id="clip-4"><path d="M 1826 2797 L 1850 2797 L 1850 3031.015625 L 1826 3031.015625 Z M 1826 2797 " clip-rule="nonzero"/></clipPath><clipPath id="clip-5"><path d="M 668.957031 1850 L 903 1850 L 903 1874 L 668.957031 1874 Z M 668.957031 1850 " clip-rule="nonzero"/></clipPath><clipPath id="clip-6"><path d="M 1826 692.515625 L 1850 692.515625 L 1850 927 L 1826 927 Z M 1826 692.515625 " clip-rule="nonzero"/></clipPath><clipPath id="clip-7"><path d="M 2396.898438 589 L 2509 589 L 2509 923 L 2396.898438 923 Z M 2396.898438 589 " clip-rule="nonzero"/></clipPath><clipPath id="clip-8"><path d="M 2402 576.632812 L 2513.898438 576.632812 L 2513.898438 910 L 2402 910 Z M 2402 576.632812 " clip-rule="nonzero"/></clipPath><clipPath id="clip-9"><path d="M 2868.128906 1033 L 3023 1033 L 3023 1335.367188 L 2868.128906 1335.367188 Z M 2868.128906 1033 " clip-rule="nonzero"/></clipPath><clipPath id="clip-10"><path d="M 2878 1024.117188 L 3033.128906 1024.117188 L 3033.128906 1326 L 2878 1326 Z M 2878 1024.117188 " clip-rule="nonzero"/></clipPath><clipPath id="clip-11"><path d="M 3033.414062 1701 L 3165 1701 L 3165 1968.894531 L 3033.414062 1968.894531 Z M 3033.414062 1701 " clip-rule="nonzero"/></clipPath><clipPath id="clip-12"><path d="M 3041 1697.394531 L 3172.914062 1697.394531 L 3172.914062 1965 L 3041 1965 Z M 3041 1697.394531 " clip-rule="nonzero"/></clipPath><clipPath id="clip-13"><path d="M 2798.5625 2302 L 2953 2302 L 2953 2566.671875 L 2798.5625 2566.671875 Z M 2798.5625 2302 " clip-rule="nonzero"/></clipPath><clipPath id="clip-14"><path d="M 2809 2295.171875 L 2963.5625 2295.171875 L 2963.5625 2561 L 2809 2561 Z M 2809 2295.171875 " clip-rule="nonzero"/></clipPath><clipPath id="clip-15"><path d="M 494.222656 1065 L 585 1065 L 585 1335.199219 L 494.222656 1335.199219 Z M 494.222656 1065 " clip-rule="nonzero"/></clipPath><clipPath id="clip-16"><path d="M 498 1054.699219 L 589 1054.699219 L 589 1325 L 498 1325 Z M 498 1054.699219 " clip-rule="nonzero"/></clipPath><clipPath id="clip-17"><path d="M 604 1055 L 756.722656 1055 L 756.722656 1330 L 604 1330 Z M 604 1055 " clip-rule="nonzero"/></clipPath><clipPath id="clip-18"><path d="M 475.839844 1702 L 618 1702 L 618 1987.644531 L 475.839844 1987.644531 Z M 475.839844 1702 " clip-rule="nonzero"/></clipPath><clipPath id="clip-19"><path d="M 483 1697.394531 L 625.089844 1697.394531 L 625.089844 1983 L 483 1983 Z M 483 1697.394531 " clip-rule="nonzero"/></clipPath><clipPath id="clip-20"><path d="M 582.542969 2263 L 742 2263 L 742 2585.890625 L 582.542969 2585.890625 Z M 582.542969 2263 " clip-rule="nonzero"/></clipPath><clipPath id="clip-21"><path d="M 596 2260.390625 L 755 2260.390625 L 755 2583 L 596 2583 Z M 596 2260.390625 " clip-rule="nonzero"/></clipPath><clipPath id="clip-22"><path d="M 1023.402344 2732 L 1167 2732 L 1167 3031.257812 L 1023.402344 3031.257812 Z M 1023.402344 2732 " clip-rule="nonzero"/></clipPath><clipPath id="clip-23"><path d="M 1033 2724.507812 L 1177.152344 2724.507812 L 1177.152344 3024 L 1033 3024 Z M 1033 2724.507812 " clip-rule="nonzero"/></clipPath><clipPath id="clip-24"><path d="M 906.765625 589 L 1019 589 L 1019 923 L 906.765625 923 Z M 906.765625 589 " clip-rule="nonzero"/></clipPath><clipPath id="clip-25"><path d="M 912 576.632812 L 1023.765625 576.632812 L 1023.765625 910 L 912 910 Z M 912 576.632812 " clip-rule="nonzero"/></clipPath><clipPath id="clip-26"><path d="M 1023.402344 589 L 1135 589 L 1135 923 L 1023.402344 923 Z M 1023.402344 589 " clip-rule="nonzero"/></clipPath><clipPath id="clip-27"><path d="M 1028 576.632812 L 1140.402344 576.632812 L 1140.402344 910 L 1028 910 Z M 1028 576.632812 " clip-rule="nonzero"/></clipPath><clipPath id="clip-28"><path d="M 1638.554688 330 L 1751 330 L 1751 663.53125 L 1638.554688 663.53125 Z M 1638.554688 330 " clip-rule="nonzero"/></clipPath><clipPath id="clip-29"><path d="M 1643 317.03125 L 1755.554688 317.03125 L 1755.554688 651 L 1643 651 Z M 1643 317.03125 " clip-rule="nonzero"/></clipPath><clipPath id="clip-30"><path d="M 1794.652344 344 L 1950 344 L 1950 646.167969 L 1794.652344 646.167969 Z M 1794.652344 344 " clip-rule="nonzero"/></clipPath><clipPath id="clip-31"><path d="M 1805 334.917969 L 1959.652344 334.917969 L 1959.652344 637 L 1805 637 Z M 1805 334.917969 " clip-rule="nonzero"/></clipPath><clipPath id="clip-32"><path d="M 1704.09375 2938 L 1869 2938 L 1869 3262.554688 L 1704.09375 3262.554688 Z M 1704.09375 2938 " clip-rule="nonzero"/></clipPath><clipPath id="clip-33"><path d="M 1713 2930.304688 L 1878.84375 2930.304688 L 1878.84375 3255 L 1713 3255 Z M 1713 2930.304688 " clip-rule="nonzero"/></clipPath></defs><g clip-path="url(#clip-0)"><path fill="rgb(78.039551%, 18.429565%, 23.139954%)" d="M 1772.230469 38.289062 C 790.6875 38.289062 0 828.976562 0 1810.519531 C 0 2792.0625 790.6875 3582.75 1772.230469 3582.75 C 2744.683594 3582.75 3544.460938 2792.0625 3544.460938 1810.519531 C 3544.460938 828.976562 2744.683594 38.289062 1772.230469 38.289062 Z M 1772.230469 3310.097656 C 945.191406 3310.097656 272.652344 2637.558594 272.652344 1810.519531 C 272.652344 983.476562 945.191406 310.941406 1772.230469 310.941406 C 2599.269531 310.941406 3271.808594 983.476562 3271.808594 1810.519531 C 3271.808594 2637.558594 2599.269531 3310.097656 1772.230469 3310.097656 Z M 1772.230469 3310.097656 " fill-opacity="1" fill-rule="nonzero"/></g><path fill="rgb(100%, 69.40918%, 64.709473%)" d="M 1772.230469 310.941406 C 945.191406 310.941406 272.652344 983.476562 272.652344 1810.519531 C 272.652344 2637.558594 945.191406 3310.097656 1772.230469 3310.097656 C 2599.269531 3310.097656 3271.808594 2637.558594 3271.808594 1810.519531 C 3271.808594 983.476562 2599.269531 310.941406 1772.230469 310.941406 Z M 1772.230469 310.941406 " fill-opacity="1" fill-rule="nonzero"/><g clip-path="url(#clip-1)"><path fill="rgb(78.039551%, 18.429565%, 23.139954%)" d="M 2440.410156 2862.488281 C 2448.75 2864.289062 2449.179688 2875.292969 2449.179688 2882.269531 L 2449.179688 2904.210938 C 2449.179688 2910.105469 2449.308594 2916.023438 2449.117188 2921.921875 C 2448.785156 2931.75 2446.253906 2947.152344 2437.824219 2953.636719 C 2434.632812 2956.09375 2430.300781 2955.128906 2426.765625 2953.9375 C 2422.417969 2952.46875 2420.613281 2947.878906 2419.648438 2943.828125 C 2418.773438 2940.144531 2419.117188 2936.324219 2418.367188 2932.613281 C 2417.5625 2928.605469 2416.75 2924.601562 2415.941406 2920.59375 C 2415.46875 2918.242188 2414.992188 2915.894531 2414.519531 2913.542969 C 2414.21875 2912.046875 2413.472656 2911.027344 2412.515625 2910.414062 C 2411.710938 2909.855469 2410.664062 2909.550781 2409.375 2909.632812 C 2398.371094 2910.339844 2387.363281 2911.050781 2376.355469 2911.765625 C 2373.457031 2911.953125 2371.023438 2914.046875 2371.023438 2917.089844 C 2371.023438 2934.308594 2370.367188 2951.726562 2377.269531 2967.910156 C 2385.355469 2986.878906 2402.398438 2998.222656 2422.546875 3001.046875 C 2434.652344 3002.746094 2447.167969 3002.019531 2459.222656 3000.21875 C 2468.03125 2998.902344 2476.957031 2996.1875 2484.34375 2991.089844 C 2497.875 2981.757812 2501.8125 2965.964844 2503.046875 2950.460938 C 2504.070312 2937.550781 2503.554688 2924.410156 2503.554688 2911.460938 C 2503.554688 2897.625 2504.242188 2883.578125 2503.238281 2869.761719 C 2501.714844 2848.679688 2492.101562 2827.71875 2471.644531 2819.195312 C 2455.59375 2812.503906 2437.046875 2813.882812 2423.339844 2823.347656 C 2425.210938 2810.3125 2427.074219 2797.285156 2428.9375 2784.253906 L 2487.5 2784.253906 C 2489.699219 2784.253906 2492.234375 2782.640625 2492.640625 2780.339844 C 2495.132812 2766.273438 2497.621094 2752.207031 2500.109375 2738.144531 C 2500.679688 2734.941406 2498.699219 2731.183594 2494.964844 2731.398438 C 2457.820312 2733.53125 2420.675781 2735.660156 2383.527344 2737.792969 C 2380.445312 2737.96875 2378.433594 2740.09375 2378.191406 2743.121094 C 2374.382812 2790.832031 2370.570312 2838.542969 2366.761719 2886.257812 C 2366.757812 2886.289062 2366.757812 2886.316406 2366.753906 2886.351562 C 2366.511719 2889.351562 2369.367188 2891.535156 2372.089844 2891.679688 C 2385.941406 2892.390625 2399.789062 2893.097656 2413.640625 2893.808594 C 2416.550781 2893.957031 2418.976562 2891.269531 2418.976562 2888.484375 C 2418.976562 2880.089844 2419.089844 2873.421875 2425.679688 2867.289062 C 2425.679688 2867.289062 2432.640625 2860.804688 2440.414062 2862.488281 " fill-opacity="1" fill-rule="nonzero"/></g><g clip-path="url(#clip-2)"><path fill="rgb(13.729858%, 12.939453%, 12.939453%)" d="M 2450.1875 2855.605469 C 2458.53125 2857.40625 2458.953125 2868.40625 2458.953125 2875.382812 L 2458.953125 2897.324219 C 2458.953125 2903.222656 2459.089844 2909.140625 2458.890625 2915.035156 C 2458.558594 2924.871094 2456.03125 2940.273438 2447.605469 2946.75 C 2444.410156 2949.210938 2440.074219 2948.242188 2436.546875 2947.054688 C 2432.195312 2945.582031 2430.390625 2940.992188 2429.429688 2936.945312 C 2428.554688 2933.261719 2428.898438 2929.445312 2428.148438 2925.730469 C 2427.339844 2921.726562 2426.527344 2917.71875 2425.71875 2913.710938 C 2425.242188 2911.359375 2424.769531 2909.007812 2424.296875 2906.664062 C 2423.992188 2905.164062 2423.25 2904.140625 2422.292969 2903.53125 C 2421.488281 2902.976562 2420.441406 2902.667969 2419.152344 2902.746094 C 2408.144531 2903.457031 2397.140625 2904.171875 2386.132812 2904.878906 C 2383.234375 2905.070312 2380.800781 2907.160156 2380.800781 2910.210938 C 2380.800781 2927.421875 2380.144531 2944.839844 2387.046875 2961.03125 C 2395.128906 2979.992188 2412.175781 2991.335938 2432.328125 2994.164062 C 2444.433594 2995.859375 2456.949219 2995.140625 2468.996094 2993.339844 C 2477.804688 2992.019531 2486.730469 2989.300781 2494.117188 2984.207031 C 2507.648438 2974.875 2511.589844 2959.085938 2512.820312 2943.578125 C 2513.84375 2930.664062 2513.328125 2917.523438 2513.328125 2904.578125 C 2513.328125 2890.742188 2514.015625 2876.695312 2513.019531 2862.878906 C 2511.492188 2841.792969 2501.875 2820.839844 2481.421875 2812.316406 C 2465.371094 2805.617188 2446.824219 2806.996094 2433.117188 2816.460938 C 2434.984375 2803.433594 2436.851562 2790.402344 2438.71875 2777.367188 L 2497.273438 2777.367188 C 2499.476562 2777.367188 2502.007812 2775.761719 2502.421875 2773.457031 C 2504.910156 2759.390625 2507.398438 2745.324219 2509.886719 2731.257812 C 2510.453125 2728.058594 2508.472656 2724.304688 2504.746094 2724.515625 C 2467.601562 2726.644531 2430.453125 2728.777344 2393.304688 2730.90625 C 2390.222656 2731.085938 2388.210938 2733.207031 2387.96875 2736.238281 C 2384.160156 2783.953125 2380.347656 2831.660156 2376.539062 2879.375 C 2376.535156 2879.40625 2376.535156 2879.441406 2376.53125 2879.46875 C 2376.289062 2882.46875 2379.144531 2884.65625 2381.867188 2884.796875 C 2395.714844 2885.507812 2409.566406 2886.214844 2423.417969 2886.925781 C 2426.324219 2887.078125 2428.753906 2884.390625 2428.753906 2881.601562 C 2428.753906 2873.210938 2428.867188 2866.542969 2435.453125 2860.410156 C 2435.453125 2860.410156 2442.417969 2853.925781 2450.1875 2855.605469 " fill-opacity="1" fill-rule="nonzero"/></g><path fill="rgb(1.568604%, 2.349854%, 2.349854%)" d="M 1957.519531 698.613281 L 1945.308594 814.898438 L 1951.113281 815.507812 L 1963.335938 699.222656 L 1957.519531 698.613281 " fill-opacity="1" fill-rule="nonzero"/><path fill="rgb(1.568604%, 2.349854%, 2.349854%)" d="M 2078.453125 717.460938 L 2054.132812 831.828125 L 2059.859375 833.046875 L 2084.167969 718.671875 L 2078.453125 717.460938 " fill-opacity="1" fill-rule="nonzero"/><path fill="rgb(1.568604%, 2.349854%, 2.349854%)" d="M 2160.613281 860.046875 L 2166.175781 861.851562 L 2202.308594 750.640625 L 2196.746094 748.835938 L 2160.613281 860.046875 " fill-opacity="1" fill-rule="nonzero"/><path fill="rgb(1.568604%, 2.349854%, 2.349854%)" d="M 2316.464844 794.792969 L 2311.113281 792.417969 L 2263.554688 899.234375 L 2268.902344 901.609375 L 2316.464844 794.792969 " fill-opacity="1" fill-rule="nonzero"/><path fill="rgb(1.568604%, 2.349854%, 2.349854%)" d="M 2420.304688 847.703125 L 2412.703125 843.320312 L 2295.777344 1045.835938 L 2316.039062 1057.53125 L 2432.960938 855.011719 L 2422.832031 849.164062 L 2420.304688 847.703125 " fill-opacity="1" fill-rule="nonzero"/><path fill="rgb(1.568604%, 2.349854%, 2.349854%)" d="M 2523.113281 914.101562 L 2454.390625 1008.699219 L 2459.117188 1012.140625 L 2527.832031 917.542969 L 2523.113281 914.101562 " fill-opacity="1" fill-rule="nonzero"/><path fill="rgb(1.568604%, 2.349854%, 2.349854%)" d="M 2622.753906 994.792969 L 2618.417969 990.886719 L 2540.175781 1077.777344 L 2544.519531 1081.6875 L 2622.753906 994.792969 " fill-opacity="1" fill-rule="nonzero"/><path fill="rgb(1.568604%, 2.349854%, 2.349854%)" d="M 2622.195312 1159.796875 L 2709.085938 1081.554688 L 2705.167969 1077.210938 L 2618.277344 1155.453125 L 2622.195312 1159.796875 " fill-opacity="1" fill-rule="nonzero"/><path fill="rgb(1.568604%, 2.349854%, 2.349854%)" d="M 2691.273438 1245.582031 L 2785.871094 1176.859375 L 2782.429688 1172.128906 L 2687.832031 1240.863281 L 2691.273438 1245.582031 " fill-opacity="1" fill-rule="nonzero"/><path fill="rgb(1.568604%, 2.349854%, 2.349854%)" d="M 2800.738281 1436.417969 L 2907.566406 1388.859375 L 2905.191406 1383.519531 L 2798.363281 1431.082031 L 2800.738281 1436.417969 " fill-opacity="1" fill-rule="nonzero"/><path fill="rgb(1.568604%, 2.349854%, 2.349854%)" d="M 2839.925781 1539.359375 L 2951.128906 1503.226562 L 2949.332031 1497.664062 L 2838.128906 1533.796875 L 2839.925781 1539.359375 " fill-opacity="1" fill-rule="nonzero"/><path fill="rgb(1.568604%, 2.349854%, 2.349854%)" d="M 2868.144531 1645.828125 L 2982.511719 1621.519531 L 2981.300781 1615.804688 L 2866.925781 1640.113281 L 2868.144531 1645.828125 " fill-opacity="1" fill-rule="nonzero"/><path fill="rgb(1.568604%, 2.349854%, 2.349854%)" d="M 2885.074219 1754.675781 L 3001.359375 1742.453125 L 3000.738281 1736.636719 L 2884.453125 1748.859375 L 2885.074219 1754.675781 " fill-opacity="1" fill-rule="nonzero"/><path fill="rgb(1.568604%, 2.349854%, 2.349854%)" d="M 2884.453125 1974.671875 L 3000.75 1986.890625 L 3001.359375 1981.074219 L 2885.074219 1968.863281 L 2884.453125 1974.671875 " fill-opacity="1" fill-rule="nonzero"/><path fill="rgb(1.568604%, 2.349854%, 2.349854%)" d="M 2866.925781 2083.414062 L 2981.300781 2107.722656 L 2982.511719 2102.007812 L 2868.144531 2077.691406 L 2866.925781 2083.414062 " fill-opacity="1" fill-rule="nonzero"/><path fill="rgb(1.568604%, 2.349854%, 2.349854%)" d="M 2838.128906 2189.734375 L 2949.332031 2225.867188 L 2951.128906 2220.304688 L 2839.925781 2184.171875 L 2838.128906 2189.734375 " fill-opacity="1" fill-rule="nonzero"/><path fill="rgb(1.568604%, 2.349854%, 2.349854%)" d="M 2798.363281 2292.457031 L 2905.191406 2340.019531 L 2907.566406 2334.671875 L 2800.738281 2287.109375 L 2798.363281 2292.457031 " fill-opacity="1" fill-rule="nonzero"/><path fill="rgb(1.568604%, 2.349854%, 2.349854%)" d="M 2687.832031 2482.675781 L 2782.429688 2551.386719 L 2785.871094 2546.667969 L 2691.273438 2477.945312 L 2687.832031 2482.675781 " fill-opacity="1" fill-rule="nonzero"/><path fill="rgb(1.568604%, 2.349854%, 2.349854%)" d="M 2618.277344 2568.074219 L 2705.167969 2646.308594 L 2709.085938 2641.976562 L 2622.195312 2563.730469 L 2618.277344 2568.074219 " fill-opacity="1" fill-rule="nonzero"/><path fill="rgb(1.568604%, 2.349854%, 2.349854%)" d="M 2540.175781 2645.75 L 2618.417969 2732.644531 L 2622.753906 2728.726562 L 2544.519531 2641.832031 L 2540.175781 2645.75 " fill-opacity="1" fill-rule="nonzero"/><path fill="rgb(1.568604%, 2.349854%, 2.349854%)" d="M 2454.390625 2714.828125 L 2523.113281 2809.425781 L 2527.832031 2805.984375 L 2459.117188 2711.390625 L 2454.390625 2714.828125 " fill-opacity="1" fill-rule="nonzero"/><path fill="rgb(1.568604%, 2.349854%, 2.349854%)" d="M 2263.554688 2824.292969 L 2311.113281 2931.109375 L 2316.464844 2928.746094 L 2268.902344 2821.917969 L 2263.554688 2824.292969 " fill-opacity="1" fill-rule="nonzero"/><path fill="rgb(1.568604%, 2.349854%, 2.349854%)" d="M 2160.613281 2863.484375 L 2196.746094 2974.683594 L 2202.308594 2972.886719 L 2166.175781 2861.6875 L 2160.613281 2863.484375 " fill-opacity="1" fill-rule="nonzero"/><path fill="rgb(1.568604%, 2.349854%, 2.349854%)" d="M 2054.132812 2891.699219 L 2078.453125 3006.066406 L 2084.167969 3004.859375 L 2059.859375 2890.480469 L 2054.132812 2891.699219 " fill-opacity="1" fill-rule="nonzero"/><path fill="rgb(1.568604%, 2.349854%, 2.349854%)" d="M 1945.308594 2908.628906 L 1957.519531 3024.914062 L 1963.335938 3024.304688 L 1951.113281 2908.011719 L 1945.308594 2908.628906 " fill-opacity="1" fill-rule="nonzero"/><path fill="rgb(1.568604%, 2.349854%, 2.349854%)" d="M 1713.082031 3024.304688 L 1718.898438 3024.914062 L 1731.117188 2908.628906 L 1725.300781 2908.011719 L 1713.082031 3024.304688 " fill-opacity="1" fill-rule="nonzero"/><path fill="rgb(1.568604%, 2.349854%, 2.349854%)" d="M 1592.25 3004.859375 L 1597.964844 3006.066406 L 1622.273438 2891.699219 L 1616.558594 2890.480469 L 1592.25 3004.859375 " fill-opacity="1" fill-rule="nonzero"/><path fill="rgb(1.568604%, 2.349854%, 2.349854%)" d="M 1510.238281 2861.6875 L 1474.105469 2972.886719 L 1479.667969 2974.683594 L 1515.800781 2863.484375 L 1510.238281 2861.6875 " fill-opacity="1" fill-rule="nonzero"/><path fill="rgb(1.568604%, 2.349854%, 2.349854%)" d="M 1407.523438 2821.917969 L 1359.960938 2928.746094 L 1365.300781 2931.109375 L 1412.863281 2824.292969 L 1407.523438 2821.917969 " fill-opacity="1" fill-rule="nonzero"/><path fill="rgb(1.568604%, 2.349854%, 2.349854%)" d="M 1148.574219 2805.984375 L 1153.304688 2809.425781 L 1222.027344 2714.828125 L 1217.308594 2711.390625 L 1148.574219 2805.984375 " fill-opacity="1" fill-rule="nonzero"/><path fill="rgb(1.568604%, 2.349854%, 2.349854%)" d="M 1053.652344 2728.726562 L 1057.996094 2732.644531 L 1136.242188 2645.75 L 1131.898438 2641.832031 L 1053.652344 2728.726562 " fill-opacity="1" fill-rule="nonzero"/><path fill="rgb(1.568604%, 2.349854%, 2.349854%)" d="M 1054.222656 2563.730469 L 967.332031 2641.976562 L 971.238281 2646.308594 L 1058.128906 2568.074219 L 1054.222656 2563.730469 " fill-opacity="1" fill-rule="nonzero"/><path fill="rgb(1.568604%, 2.349854%, 2.349854%)" d="M 985.144531 2477.945312 L 890.546875 2546.667969 L 893.988281 2551.386719 L 988.582031 2482.675781 L 985.144531 2477.945312 " fill-opacity="1" fill-rule="nonzero"/><path fill="rgb(1.568604%, 2.349854%, 2.349854%)" d="M 875.679688 2287.109375 L 768.863281 2334.671875 L 771.238281 2340.019531 L 878.054688 2292.457031 L 875.679688 2287.109375 " fill-opacity="1" fill-rule="nonzero"/><path fill="rgb(1.568604%, 2.349854%, 2.349854%)" d="M 836.488281 2184.171875 L 725.277344 2220.304688 L 727.085938 2225.867188 L 838.285156 2189.734375 L 836.488281 2184.171875 " fill-opacity="1" fill-rule="nonzero"/><path fill="rgb(1.568604%, 2.349854%, 2.349854%)" d="M 808.273438 2077.691406 L 693.90625 2102.007812 L 695.113281 2107.722656 L 809.492188 2083.414062 L 808.273438 2077.691406 " fill-opacity="1" fill-rule="nonzero"/><path fill="rgb(1.568604%, 2.349854%, 2.349854%)" d="M 791.34375 1968.863281 L 675.058594 1981.074219 L 675.667969 1986.890625 L 791.953125 1974.671875 L 791.34375 1968.863281 " fill-opacity="1" fill-rule="nonzero"/><path fill="rgb(1.568604%, 2.349854%, 2.349854%)" d="M 791.953125 1748.859375 L 675.667969 1736.636719 L 675.058594 1742.453125 L 791.34375 1754.675781 L 791.953125 1748.859375 " fill-opacity="1" fill-rule="nonzero"/><path fill="rgb(1.568604%, 2.349854%, 2.349854%)" d="M 809.492188 1640.113281 L 695.113281 1615.804688 L 693.90625 1621.519531 L 808.273438 1645.828125 L 809.492188 1640.113281 " fill-opacity="1" fill-rule="nonzero"/><path fill="rgb(1.568604%, 2.349854%, 2.349854%)" d="M 838.285156 1533.796875 L 727.085938 1497.664062 L 725.277344 1503.226562 L 836.488281 1539.359375 L 838.285156 1533.796875 " fill-opacity="1" fill-rule="nonzero"/><path fill="rgb(1.568604%, 2.349854%, 2.349854%)" d="M 878.054688 1431.082031 L 771.238281 1383.519531 L 768.863281 1388.859375 L 875.679688 1436.417969 L 878.054688 1431.082031 " fill-opacity="1" fill-rule="nonzero"/><path fill="rgb(1.568604%, 2.349854%, 2.349854%)" d="M 988.582031 1240.863281 L 893.988281 1172.128906 L 890.546875 1176.859375 L 985.144531 1245.582031 L 988.582031 1240.863281 " fill-opacity="1" fill-rule="nonzero"/><path fill="rgb(1.568604%, 2.349854%, 2.349854%)" d="M 1058.128906 1155.453125 L 971.238281 1077.210938 L 967.332031 1081.554688 L 1054.222656 1159.796875 L 1058.128906 1155.453125 " fill-opacity="1" fill-rule="nonzero"/><path fill="rgb(1.568604%, 2.349854%, 2.349854%)" d="M 1053.652344 994.792969 L 1131.898438 1081.6875 L 1136.242188 1077.777344 L 1057.996094 990.886719 L 1053.652344 994.792969 " fill-opacity="1" fill-rule="nonzero"/><path fill="rgb(1.568604%, 2.349854%, 2.349854%)" d="M 1148.574219 917.542969 L 1217.308594 1012.140625 L 1222.027344 1008.699219 L 1153.304688 914.101562 L 1148.574219 917.542969 " fill-opacity="1" fill-rule="nonzero"/><path fill="rgb(1.568604%, 2.349854%, 2.349854%)" d="M 1359.960938 794.792969 L 1407.523438 901.609375 L 1412.863281 899.234375 L 1365.300781 792.417969 L 1359.960938 794.792969 " fill-opacity="1" fill-rule="nonzero"/><path fill="rgb(1.568604%, 2.349854%, 2.349854%)" d="M 1474.105469 750.640625 L 1510.238281 861.851562 L 1515.800781 860.046875 L 1479.667969 748.835938 L 1474.105469 750.640625 " fill-opacity="1" fill-rule="nonzero"/><path fill="rgb(1.568604%, 2.349854%, 2.349854%)" d="M 1592.25 718.671875 L 1616.558594 833.046875 L 1622.273438 831.828125 L 1597.964844 717.460938 L 1592.25 718.671875 " fill-opacity="1" fill-rule="nonzero"/><path fill="rgb(1.568604%, 2.349854%, 2.349854%)" d="M 1713.082031 699.222656 L 1725.300781 815.507812 L 1731.117188 814.898438 L 1718.898438 698.613281 L 1713.082031 699.222656 " fill-opacity="1" fill-rule="nonzero"/><path fill="rgb(1.568604%, 2.349854%, 2.349854%)" d="M 2642.441406 1383.933594 L 2654.136719 1404.195312 L 2856.652344 1287.269531 L 2850.808594 1277.140625 L 2849.34375 1274.601562 L 2849.34375 1274.613281 L 2844.960938 1267.011719 L 2642.441406 1383.933594 " fill-opacity="1" fill-rule="nonzero"/><g clip-path="url(#clip-3)"><path fill="rgb(1.568604%, 2.349854%, 2.349854%)" d="M 2773.609375 1850.070312 L 2773.609375 1873.457031 L 3007.457031 1873.457031 L 3007.457031 1850.070312 L 2773.609375 1850.070312 " fill-opacity="1" fill-rule="nonzero"/></g><path fill="rgb(1.568604%, 2.349854%, 2.349854%)" d="M 2654.136719 2319.335938 L 2642.441406 2339.59375 L 2844.960938 2456.519531 L 2850.808594 2446.390625 L 2852.269531 2443.863281 L 2856.652344 2436.261719 L 2654.136719 2319.335938 " fill-opacity="1" fill-rule="nonzero"/><path fill="rgb(1.568604%, 2.349854%, 2.349854%)" d="M 2295.777344 2677.691406 L 2412.703125 2880.210938 L 2420.304688 2875.824219 L 2422.832031 2874.363281 L 2432.960938 2868.515625 L 2316.039062 2666 L 2295.777344 2677.691406 " fill-opacity="1" fill-rule="nonzero"/><g clip-path="url(#clip-4)"><path fill="rgb(1.568604%, 2.349854%, 2.349854%)" d="M 1826.515625 2797.164062 L 1826.515625 3031.015625 L 1849.902344 3031.015625 L 1849.902344 2797.164062 L 1826.515625 2797.164062 " fill-opacity="1" fill-rule="nonzero"/></g><path fill="rgb(1.568604%, 2.349854%, 2.349854%)" d="M 1360.378906 2666 L 1243.453125 2868.515625 L 1251.054688 2872.902344 L 1251.046875 2872.902344 L 1253.582031 2874.363281 L 1263.710938 2880.210938 L 1380.636719 2677.691406 L 1360.378906 2666 " fill-opacity="1" fill-rule="nonzero"/><path fill="rgb(1.568604%, 2.349854%, 2.349854%)" d="M 1022.28125 2319.335938 L 819.761719 2436.261719 L 824.148438 2443.863281 L 825.609375 2446.390625 L 831.457031 2456.519531 L 1033.972656 2339.59375 L 1022.28125 2319.335938 " fill-opacity="1" fill-rule="nonzero"/><g clip-path="url(#clip-5)"><path fill="rgb(1.568604%, 2.349854%, 2.349854%)" d="M 902.808594 1850.070312 L 668.957031 1850.070312 L 668.957031 1873.457031 L 902.808594 1873.457031 L 902.808594 1850.070312 " fill-opacity="1" fill-rule="nonzero"/></g><path fill="rgb(1.568604%, 2.349854%, 2.349854%)" d="M 1033.972656 1383.933594 L 831.457031 1267.011719 L 827.070312 1274.613281 L 827.070312 1274.601562 L 825.609375 1277.140625 L 819.761719 1287.269531 L 1022.28125 1404.195312 L 1033.972656 1383.933594 " fill-opacity="1" fill-rule="nonzero"/><path fill="rgb(1.568604%, 2.349854%, 2.349854%)" d="M 1360.378906 1057.53125 L 1380.636719 1045.835938 L 1263.710938 843.320312 L 1253.582031 849.164062 L 1251.046875 850.628906 L 1251.054688 850.628906 L 1243.453125 855.011719 L 1360.378906 1057.53125 " fill-opacity="1" fill-rule="nonzero"/><g clip-path="url(#clip-6)"><path fill="rgb(1.568604%, 2.349854%, 2.349854%)" d="M 1835.285156 692.515625 L 1826.515625 692.515625 L 1826.515625 926.363281 L 1849.902344 926.363281 L 1849.902344 692.515625 L 1835.285156 692.515625 " fill-opacity="1" fill-rule="nonzero"/></g><g clip-path="url(#clip-7)"><path fill="rgb(78.039551%, 18.429565%, 23.139954%)" d="M 2487.554688 590.40625 C 2487.554688 590.40625 2497.691406 586.78125 2497.691406 598.617188 L 2508.492188 907.390625 C 2508.492188 924.605469 2499.296875 922.738281 2499.296875 922.738281 L 2446.375 920.585938 C 2434.496094 920.585938 2433.476562 909.546875 2433.476562 909.546875 L 2442.890625 835.289062 C 2442.890625 835.289062 2464.734375 656.710938 2459.175781 653.484375 C 2453.617188 650.253906 2427.121094 665.902344 2427.121094 665.902344 C 2410.191406 667.5625 2396.898438 641.285156 2396.898438 641.285156 C 2396.898438 641.285156 2447.742188 601.558594 2487.554688 590.402344 " fill-opacity="1" fill-rule="nonzero"/></g><g clip-path="url(#clip-8)"><path fill="rgb(13.729858%, 12.939453%, 12.939453%)" d="M 2492.960938 577.492188 C 2492.960938 577.492188 2503.097656 573.871094 2503.097656 585.707031 L 2513.890625 894.484375 C 2513.890625 911.695312 2504.699219 909.832031 2504.699219 909.832031 L 2451.773438 907.679688 C 2439.894531 907.679688 2438.875 896.636719 2438.875 896.636719 L 2448.292969 822.390625 C 2448.292969 822.390625 2470.136719 643.804688 2464.574219 640.582031 C 2459.015625 637.351562 2432.523438 653 2432.523438 653 C 2415.589844 654.65625 2402.296875 628.382812 2402.296875 628.382812 C 2402.296875 628.382812 2453.140625 588.652344 2492.960938 577.496094 " fill-opacity="1" fill-rule="nonzero"/></g><g clip-path="url(#clip-9)"><path fill="rgb(25.099182%, 43.528748%, 69.018555%)" d="M 3021.59375 1307.480469 C 3020.386719 1298.449219 3018.464844 1289.453125 3016.078125 1280.660156 C 3015.800781 1279.644531 3014.84375 1278.925781 3013.796875 1278.925781 L 2932.125 1278.925781 C 2928.875 1250.894531 2952.441406 1232.40625 2970.101562 1214.28125 C 2981.203125 1202.890625 2991.433594 1190.625 2998.945312 1176.523438 C 3008.070312 1159.402344 3012.238281 1140.273438 3012.6875 1120.953125 C 3013.148438 1100.933594 3009.304688 1080.144531 2998.476562 1063.0625 C 2988.628906 1047.53125 2972.785156 1037.449219 2954.730469 1034.5625 C 2917.238281 1028.574219 2877.851562 1050.960938 2870.460938 1089.519531 C 2867.828125 1103.246094 2869.171875 1118.085938 2869.171875 1132 C 2869.171875 1133.390625 2870.253906 1134.238281 2871.535156 1134.371094 C 2887.066406 1135.949219 2902.601562 1137.53125 2918.132812 1139.113281 C 2919.417969 1139.238281 2920.496094 1137.929688 2920.496094 1136.738281 C 2920.496094 1125.921875 2920.363281 1115.089844 2920.519531 1104.273438 C 2920.671875 1093.855469 2925.53125 1086.824219 2935.828125 1084.964844 C 2940.117188 1084.191406 2945.085938 1083.941406 2949.265625 1085.253906 C 2954.261719 1086.824219 2957.777344 1091.578125 2960.222656 1095.933594 C 2968.835938 1111.320312 2964.953125 1132.90625 2958.789062 1148.488281 C 2952.703125 1163.886719 2941.808594 1176.878906 2930.613281 1188.8125 C 2909.808594 1210.992188 2886.265625 1231.523438 2876.082031 1261.164062 C 2871.753906 1273.761719 2871.492188 1286.660156 2870.570312 1299.769531 C 2869.785156 1310.847656 2869.007812 1321.921875 2868.226562 1332.996094 C 2868.136719 1334.257812 2869.367188 1335.40625 2870.589844 1335.367188 C 2916.578125 1333.867188 2962.5625 1332.363281 3008.546875 1330.859375 C 3010.933594 1330.78125 3013.308594 1330.707031 3015.691406 1330.628906 C 3025.332031 1330.085938 3022.375 1313.328125 3021.597656 1307.480469 " fill-opacity="1" fill-rule="nonzero"/></g><g clip-path="url(#clip-10)"><path fill="rgb(13.729858%, 12.939453%, 12.939453%)" d="M 3031.996094 1297.996094 C 3030.792969 1288.964844 3028.867188 1279.96875 3026.480469 1271.179688 C 3026.203125 1270.160156 3025.246094 1269.4375 3024.203125 1269.4375 L 2942.527344 1269.4375 C 2939.277344 1241.410156 2962.84375 1222.917969 2980.503906 1204.796875 C 2991.605469 1193.414062 3001.835938 1181.140625 3009.347656 1167.042969 C 3018.476562 1149.921875 3022.640625 1130.789062 3023.089844 1111.472656 C 3023.554688 1091.457031 3019.707031 1070.660156 3008.878906 1053.578125 C 2999.03125 1038.046875 2983.1875 1027.96875 2965.132812 1025.082031 C 2927.640625 1019.089844 2888.253906 1041.480469 2880.863281 1080.035156 C 2878.230469 1093.757812 2879.574219 1108.609375 2879.574219 1122.519531 C 2879.574219 1123.910156 2880.65625 1124.757812 2881.9375 1124.886719 C 2897.472656 1126.46875 2913.003906 1128.050781 2928.535156 1129.625 C 2929.820312 1129.761719 2930.902344 1128.453125 2930.902344 1127.261719 C 2930.902344 1116.433594 2930.765625 1105.605469 2930.921875 1094.785156 C 2931.074219 1084.371094 2935.929688 1077.339844 2946.230469 1075.484375 C 2950.519531 1074.710938 2955.496094 1074.460938 2959.667969 1075.773438 C 2964.660156 1077.339844 2968.1875 1082.09375 2970.625 1086.453125 C 2979.238281 1101.839844 2975.363281 1123.425781 2969.199219 1139.007812 C 2963.101562 1154.40625 2952.210938 1167.394531 2941.019531 1179.328125 C 2920.210938 1201.507812 2896.671875 1222.046875 2886.484375 1251.6875 C 2882.15625 1264.277344 2881.894531 1277.175781 2880.972656 1290.289062 C 2880.191406 1301.363281 2879.410156 1312.4375 2878.628906 1323.515625 C 2878.539062 1324.78125 2879.769531 1325.925781 2880.992188 1325.882812 C 2926.980469 1324.382812 2972.96875 1322.878906 3018.957031 1321.378906 C 3021.335938 1321.304688 3023.714844 1321.21875 3026.097656 1321.144531 C 3035.734375 1320.601562 3032.78125 1303.84375 3032 1297.996094 " fill-opacity="1" fill-rule="nonzero"/></g><g clip-path="url(#clip-11)"><path fill="rgb(78.039551%, 18.429565%, 23.139954%)" d="M 3164.476562 1874.980469 C 3162.914062 1854.726562 3151.363281 1837.097656 3133.828125 1827.429688 C 3139.875 1824.488281 3145.492188 1820.832031 3149.785156 1815.5 C 3155.492188 1808.425781 3157.539062 1799.480469 3158.394531 1790.632812 C 3159.09375 1783.515625 3158.769531 1776.242188 3158.769531 1769.09375 C 3158.769531 1758.621094 3157.425781 1748.089844 3153.921875 1738.1875 C 3147.84375 1721.03125 3134.445312 1708.761719 3116.976562 1703.832031 C 3100.570312 1699.207031 3084.675781 1701.222656 3069.667969 1708.925781 C 3056.347656 1715.765625 3044.949219 1726.746094 3038.703125 1740.421875 C 3033.210938 1752.449219 3033.703125 1765.140625 3033.703125 1778.015625 C 3033.703125 1779.472656 3034.84375 1780.359375 3036.191406 1780.496094 C 3048.886719 1781.828125 3061.578125 1783.152344 3074.269531 1784.480469 C 3075.621094 1784.621094 3076.757812 1783.242188 3076.757812 1781.996094 C 3076.757812 1771.433594 3074.371094 1756.4375 3081.65625 1747.832031 C 3086.226562 1742.433594 3095.652344 1741.296875 3101.632812 1744.625 C 3109.769531 1749.15625 3112.585938 1761.117188 3113.511719 1769.5625 C 3113.511719 1780.414062 3115.78125 1795.195312 3107.46875 1803.585938 C 3100.246094 1810.875 3085.40625 1808.386719 3076.097656 1808.386719 C 3075.074219 1808.386719 3073.882812 1809.140625 3073.699219 1810.21875 C 3071.703125 1821.738281 3069.714844 1833.261719 3067.71875 1844.789062 C 3067.425781 1846.492188 3068.410156 1847.757812 3070.121094 1847.9375 C 3075.953125 1848.53125 3081.785156 1849.121094 3087.613281 1849.71875 C 3094.851562 1850.457031 3101.921875 1850.253906 3107.355469 1855.902344 C 3113.378906 1862.160156 3113.511719 1872.835938 3113.511719 1880.898438 L 3113.511719 1899.851562 C 3113.511719 1906.65625 3114.8125 1919.667969 3108.496094 1924.503906 C 3102.085938 1929.417969 3089.765625 1925.859375 3084.148438 1921.453125 C 3076.929688 1915.789062 3076.757812 1906.796875 3076.757812 1898.449219 L 3076.757812 1879.980469 C 3076.757812 1878.710938 3075.621094 1877.378906 3074.269531 1877.492188 C 3062.574219 1878.488281 3050.878906 1879.484375 3039.183594 1880.480469 C 3038.160156 1880.5625 3036.96875 1881.164062 3036.78125 1882.304688 C 3035.816406 1888.1875 3034.851562 1894.0625 3033.886719 1899.941406 C 3032.511719 1908.328125 3034.71875 1918.671875 3037.164062 1926.707031 C 3042.328125 1943.671875 3055.1875 1955.121094 3071.304688 1961.613281 C 3089.742188 1969.042969 3111.886719 1972.214844 3130.574219 1964.195312 C 3148.371094 1956.566406 3158.863281 1938.6875 3162.808594 1920.464844 C 3164.535156 1912.484375 3164.742188 1904.378906 3164.742188 1896.257812 C 3164.742188 1889.1875 3165.019531 1882.039062 3164.476562 1874.980469 " fill-opacity="1" fill-rule="nonzero"/></g><g clip-path="url(#clip-12)"><path fill="rgb(13.729858%, 12.939453%, 12.939453%)" d="M 3172.519531 1871.003906 C 3170.960938 1850.746094 3159.402344 1833.113281 3141.878906 1823.453125 C 3147.921875 1820.507812 3153.535156 1816.851562 3157.832031 1811.519531 C 3163.53125 1804.449219 3165.582031 1795.5 3166.441406 1786.652344 C 3167.136719 1779.535156 3166.808594 1772.261719 3166.808594 1765.117188 C 3166.808594 1754.644531 3165.472656 1744.109375 3161.960938 1734.207031 C 3155.886719 1717.050781 3142.492188 1704.78125 3125.023438 1699.855469 C 3108.609375 1695.226562 3092.71875 1697.242188 3077.714844 1704.945312 C 3064.394531 1711.785156 3052.996094 1722.765625 3046.75 1736.441406 C 3041.257812 1748.46875 3041.746094 1761.160156 3041.746094 1774.03125 C 3041.746094 1775.496094 3042.886719 1776.378906 3044.238281 1776.523438 L 3082.3125 1780.496094 C 3083.664062 1780.640625 3084.804688 1779.261719 3084.804688 1778.015625 C 3084.804688 1767.453125 3082.414062 1752.453125 3089.703125 1743.851562 C 3094.273438 1738.457031 3103.699219 1737.316406 3109.679688 1740.648438 C 3117.808594 1745.175781 3120.632812 1757.136719 3121.558594 1765.585938 C 3121.558594 1776.433594 3123.820312 1791.214844 3115.511719 1799.605469 C 3108.292969 1806.902344 3093.453125 1804.410156 3084.144531 1804.410156 C 3083.117188 1804.410156 3081.929688 1805.160156 3081.742188 1806.234375 C 3079.75 1817.757812 3077.757812 1829.285156 3075.765625 1840.808594 C 3075.46875 1842.511719 3076.453125 1843.785156 3078.167969 1843.957031 C 3083.996094 1844.554688 3089.832031 1845.148438 3095.660156 1845.738281 C 3102.898438 1846.480469 3109.964844 1846.273438 3115.394531 1851.921875 C 3121.425781 1858.175781 3121.558594 1868.855469 3121.558594 1876.917969 L 3121.558594 1895.867188 C 3121.558594 1902.679688 3122.855469 1915.6875 3116.542969 1920.523438 C 3110.128906 1925.4375 3097.804688 1921.882812 3092.195312 1917.476562 C 3084.972656 1911.808594 3084.804688 1902.8125 3084.804688 1894.464844 L 3084.804688 1876 C 3084.804688 1874.730469 3083.667969 1873.394531 3082.3125 1873.511719 C 3070.617188 1874.507812 3058.921875 1875.503906 3047.226562 1876.5 C 3046.203125 1876.585938 3045.011719 1877.1875 3044.824219 1878.328125 C 3043.863281 1884.203125 3042.898438 1890.085938 3041.933594 1895.96875 C 3040.558594 1904.347656 3042.761719 1914.691406 3045.207031 1922.726562 C 3050.371094 1939.695312 3063.230469 1951.140625 3079.347656 1957.636719 C 3097.789062 1965.066406 3119.929688 1968.230469 3138.621094 1960.21875 C 3156.417969 1952.589844 3166.910156 1934.707031 3170.855469 1916.484375 C 3172.574219 1908.503906 3172.789062 1900.402344 3172.789062 1892.277344 C 3172.789062 1885.203125 3173.066406 1878.058594 3172.519531 1871.003906 " fill-opacity="1" fill-rule="nonzero"/></g><g clip-path="url(#clip-13)"><path fill="rgb(25.099182%, 43.528748%, 69.018555%)" d="M 2879.390625 2399.945312 C 2880.214844 2420.726562 2881.039062 2441.503906 2881.859375 2462.277344 C 2871.519531 2462.691406 2861.179688 2463.101562 2850.84375 2463.519531 C 2860.359375 2442.328125 2869.875 2421.136719 2879.390625 2399.945312 Z M 2948.511719 2461.269531 C 2940.992188 2461.742188 2933.464844 2462.210938 2925.941406 2462.683594 L 2925.941406 2306.308594 C 2925.941406 2304.03125 2924.042969 2302.128906 2921.765625 2302.128906 L 2879.316406 2302.128906 C 2877.945312 2302.128906 2876.328125 2302.902344 2875.710938 2304.199219 C 2858.464844 2340.78125 2841.222656 2377.363281 2823.980469 2413.941406 C 2815.695312 2431.527344 2807.40625 2449.105469 2799.121094 2466.683594 C 2798.796875 2467.371094 2798.667969 2468.046875 2798.683594 2468.683594 C 2798.636719 2469.070312 2798.636719 2469.480469 2798.699219 2469.90625 C 2800.644531 2483.378906 2802.59375 2496.855469 2804.542969 2510.328125 C 2804.804688 2512.140625 2806.886719 2513.402344 2808.570312 2513.402344 L 2881.710938 2513.402344 C 2880.699219 2527 2879.691406 2540.597656 2878.679688 2554.195312 C 2878.554688 2555.90625 2880.035156 2557.925781 2881.742188 2558.226562 C 2897.496094 2561.007812 2913.253906 2563.800781 2929.007812 2566.582031 C 2932.335938 2567.175781 2934.652344 2564.722656 2934.144531 2561.441406 C 2931.636719 2545.429688 2929.128906 2529.414062 2926.621094 2513.402344 L 2940.160156 2513.402344 C 2941.910156 2513.402344 2943.84375 2512.140625 2944.1875 2510.328125 C 2946.96875 2495.746094 2949.753906 2481.152344 2952.535156 2466.5625 C 2953.015625 2464.0625 2951.40625 2461.089844 2948.511719 2461.269531 " fill-opacity="1" fill-rule="nonzero"/></g><g clip-path="url(#clip-14)"><path fill="rgb(13.729858%, 12.939453%, 12.939453%)" d="M 2890.242188 2394.09375 C 2891.066406 2414.875 2891.890625 2435.652344 2892.714844 2456.433594 C 2882.375 2456.84375 2872.035156 2457.25 2861.695312 2457.667969 C 2871.210938 2436.476562 2880.726562 2415.285156 2890.242188 2394.09375 Z M 2959.367188 2455.417969 C 2951.847656 2455.890625 2944.320312 2456.359375 2936.796875 2456.832031 L 2936.796875 2300.457031 C 2936.796875 2298.179688 2934.898438 2295.171875 2932.625 2295.171875 C 2918.472656 2295.171875 2904.320312 2296.277344 2890.171875 2296.277344 C 2888.800781 2296.277344 2887.179688 2297.050781 2886.566406 2298.347656 C 2869.328125 2334.929688 2852.078125 2371.511719 2834.835938 2408.09375 C 2826.546875 2425.675781 2818.261719 2443.253906 2809.972656 2460.835938 C 2809.652344 2461.519531 2809.519531 2462.195312 2809.539062 2462.832031 C 2809.492188 2463.21875 2809.492188 2463.628906 2809.554688 2464.054688 C 2811.5 2477.535156 2813.449219 2491.007812 2815.398438 2504.484375 C 2815.660156 2506.289062 2817.742188 2507.550781 2819.425781 2507.550781 L 2892.566406 2507.550781 C 2891.554688 2521.152344 2890.546875 2534.746094 2889.535156 2548.34375 C 2889.410156 2550.054688 2890.890625 2552.070312 2892.597656 2552.375 C 2908.351562 2555.160156 2924.105469 2557.949219 2939.863281 2560.734375 C 2943.191406 2561.324219 2945.515625 2558.875 2945 2555.589844 C 2942.492188 2539.578125 2939.984375 2523.5625 2937.476562 2507.550781 L 2951.015625 2507.550781 C 2952.757812 2507.550781 2954.699219 2506.289062 2955.042969 2504.484375 C 2957.828125 2489.894531 2960.609375 2475.304688 2963.390625 2460.710938 C 2963.867188 2458.210938 2962.257812 2455.238281 2959.367188 2455.421875 " fill-opacity="1" fill-rule="nonzero"/></g><g clip-path="url(#clip-15)"><path fill="rgb(25.099182%, 43.528748%, 69.018555%)" d="M 567.40625 1065.675781 C 567.40625 1065.675781 575.589844 1062.738281 575.589844 1072.332031 L 584.308594 1322.617188 C 584.308594 1336.574219 576.882812 1335.0625 576.882812 1335.0625 L 534.164062 1333.316406 C 524.574219 1333.316406 523.75 1324.359375 523.75 1324.359375 L 531.351562 1264.175781 C 531.351562 1264.175781 548.984375 1119.425781 544.496094 1116.808594 C 540.007812 1114.1875 518.621094 1126.875 518.621094 1126.875 C 504.953125 1128.222656 494.222656 1106.921875 494.222656 1106.921875 C 494.222656 1106.921875 535.265625 1074.71875 567.40625 1065.675781 " fill-opacity="1" fill-rule="nonzero"/></g><g clip-path="url(#clip-16)"><path fill="rgb(13.729858%, 12.939453%, 12.939453%)" d="M 571.769531 1055.210938 C 571.769531 1055.210938 579.949219 1052.273438 579.949219 1061.867188 L 588.664062 1312.15625 C 588.664062 1326.109375 581.246094 1324.597656 581.246094 1324.597656 L 538.523438 1322.851562 C 528.933594 1322.851562 528.109375 1313.902344 528.109375 1313.902344 L 535.710938 1253.71875 C 535.710938 1253.71875 553.34375 1108.960938 548.855469 1106.347656 C 544.367188 1103.730469 522.980469 1116.417969 522.980469 1116.417969 C 509.3125 1117.757812 498.578125 1096.460938 498.578125 1096.460938 C 498.578125 1096.460938 539.625 1064.253906 571.769531 1055.214844 " fill-opacity="1" fill-rule="nonzero"/></g><path fill="rgb(78.039551%, 18.429565%, 23.139954%)" d="M 746.554688 1209.539062 C 746.554688 1284.992188 712.488281 1333.144531 670.460938 1333.144531 C 618.429688 1333.144531 594.367188 1288.253906 594.367188 1190.027344 C 594.367188 1114.570312 628.4375 1059.910156 670.460938 1059.910156 C 726.394531 1059.914062 746.554688 1134.085938 746.554688 1209.539062 " fill-opacity="1" fill-rule="nonzero"/><g clip-path="url(#clip-17)"><path fill="rgb(13.729858%, 12.939453%, 12.939453%)" d="M 756.722656 1205.558594 C 756.722656 1281.003906 722.65625 1329.164062 680.628906 1329.164062 C 628.597656 1329.164062 604.535156 1284.273438 604.535156 1186.042969 C 604.535156 1110.589844 638.605469 1055.929688 680.628906 1055.929688 C 736.5625 1055.929688 756.722656 1130.105469 756.722656 1205.558594 " fill-opacity="1" fill-rule="nonzero"/></g><g clip-path="url(#clip-18)"><path fill="rgb(78.039551%, 18.429565%, 23.139954%)" d="M 566.941406 1785 C 566.40625 1794.523438 565.875 1804.046875 565.347656 1813.570312 C 565.214844 1815.847656 565.089844 1818.117188 564.957031 1820.394531 C 564.6875 1826.972656 563.1875 1833.566406 558.269531 1838.238281 C 554.863281 1841.472656 550.21875 1842.886719 545.683594 1843.582031 C 531.929688 1845.695312 528.171875 1831.046875 528.25 1820.257812 C 528.347656 1805.8125 529.128906 1791.34375 529.574219 1776.90625 C 529.902344 1766.246094 533.050781 1751.53125 544.945312 1748.257812 C 549.683594 1746.949219 555.667969 1747.921875 559.890625 1750.386719 C 564.589844 1753.132812 566.46875 1758.367188 567.3125 1763.476562 C 568.457031 1770.410156 567.335938 1778.035156 566.941406 1785 Z M 476.46875 1837.386719 C 478.878906 1858.722656 490.339844 1878.28125 511.449219 1885.203125 C 530.921875 1891.585938 553.945312 1887.484375 568.070312 1872.902344 L 564.421875 1907.550781 C 563.480469 1916.472656 563.25 1925.796875 557.972656 1933.441406 C 552.683594 1941.113281 541.226562 1942.652344 532.882812 1939.929688 C 520.613281 1935.933594 523.707031 1917.078125 524.011719 1907.164062 C 524.0625 1905.621094 522.707031 1903.859375 521.03125 1903.984375 C 507.582031 1905.011719 494.132812 1906.039062 480.683594 1907.0625 C 479.007812 1907.1875 477.566406 1908.238281 477.511719 1910.054688 C 477.148438 1921.757812 477.503906 1933.019531 481.875 1944.070312 C 486.4375 1955.597656 494.257812 1965.296875 504 1972.855469 C 512.480469 1979.433594 522.695312 1984.199219 533.230469 1986.265625 C 544.859375 1988.550781 557.613281 1987.390625 568.988281 1984.308594 C 583.09375 1980.492188 595.441406 1972.230469 603.996094 1960.335938 C 613.363281 1947.300781 616.960938 1930.902344 617.554688 1915.09375 C 617.566406 1914.976562 617.570312 1914.847656 617.570312 1914.710938 C 617.300781 1885.269531 617.03125 1855.828125 616.761719 1826.386719 C 616.625 1811.160156 616.480469 1795.933594 616.34375 1780.707031 C 616.292969 1775.660156 616.445312 1770.609375 616.15625 1765.566406 C 615.46875 1753.328125 612.546875 1741.042969 606.117188 1730.503906 C 592.820312 1708.679688 567.503906 1701.90625 543.378906 1702.445312 C 531.640625 1702.707031 519.707031 1704.695312 509.203125 1710.167969 C 499.914062 1715.007812 492.617188 1722.910156 488.128906 1732.34375 C 483.121094 1742.867188 482.273438 1753.773438 481.171875 1765.175781 C 480.53125 1771.832031 479.890625 1778.492188 479.25 1785.144531 C 477.582031 1802.410156 474.507812 1820.035156 476.46875 1837.386719 " fill-opacity="1" fill-rule="nonzero"/></g><g clip-path="url(#clip-19)"><path fill="rgb(13.729858%, 12.939453%, 12.939453%)" d="M 574.457031 1780.160156 C 573.921875 1789.683594 573.386719 1799.203125 572.855469 1808.726562 C 572.726562 1811.003906 572.601562 1813.28125 572.46875 1815.558594 C 572.199219 1822.132812 570.703125 1828.730469 565.785156 1833.398438 C 562.378906 1836.636719 557.730469 1838.046875 553.191406 1838.746094 C 539.441406 1840.859375 535.683594 1826.210938 535.761719 1815.417969 C 535.863281 1800.976562 536.640625 1786.507812 537.085938 1772.066406 C 537.414062 1761.402344 540.5625 1746.691406 552.453125 1743.414062 C 557.199219 1742.109375 563.183594 1743.082031 567.402344 1745.546875 C 572.105469 1748.292969 573.980469 1753.527344 574.828125 1758.640625 C 575.972656 1765.574219 574.84375 1773.199219 574.457031 1780.160156 Z M 483.980469 1832.542969 C 486.394531 1853.878906 497.851562 1873.4375 518.96875 1880.359375 C 538.433594 1886.742188 561.460938 1882.648438 575.59375 1868.066406 C 574.371094 1879.613281 573.152344 1891.164062 571.933594 1902.710938 C 570.992188 1911.628906 570.765625 1920.953125 565.488281 1928.601562 C 560.199219 1936.277344 548.734375 1937.808594 540.394531 1935.09375 C 528.128906 1931.089844 531.222656 1912.242188 531.527344 1902.328125 C 531.574219 1900.785156 530.222656 1899.015625 528.542969 1899.148438 C 515.09375 1900.171875 501.644531 1901.199219 488.199219 1902.226562 C 486.523438 1902.351562 485.082031 1903.398438 485.023438 1905.210938 C 484.664062 1916.917969 485.015625 1928.175781 489.390625 1939.230469 C 493.949219 1950.757812 501.773438 1960.460938 511.511719 1968.011719 C 519.996094 1974.59375 530.210938 1979.363281 540.75 1981.425781 C 552.375 1983.707031 565.128906 1982.546875 576.503906 1979.472656 C 590.609375 1975.65625 602.960938 1967.386719 611.503906 1955.496094 C 620.878906 1942.464844 624.476562 1926.066406 625.070312 1910.257812 C 625.082031 1910.132812 625.085938 1910.007812 625.085938 1909.867188 C 624.816406 1880.425781 624.546875 1850.984375 624.277344 1821.542969 C 624.140625 1806.316406 623.996094 1791.089844 623.859375 1775.867188 C 623.808594 1770.816406 623.960938 1765.765625 623.671875 1760.730469 C 622.976562 1748.488281 620.0625 1736.203125 613.632812 1725.660156 C 600.328125 1703.835938 575.019531 1697.066406 550.894531 1697.605469 C 539.152344 1697.867188 527.222656 1699.855469 516.722656 1705.328125 C 507.429688 1710.167969 500.132812 1718.070312 495.644531 1727.503906 C 490.636719 1738.023438 489.789062 1748.933594 488.691406 1760.339844 C 488.046875 1766.992188 487.40625 1773.648438 486.765625 1780.300781 C 485.097656 1797.574219 482.019531 1815.199219 483.980469 1832.542969 " fill-opacity="1" fill-rule="nonzero"/></g><g clip-path="url(#clip-20)"><path fill="rgb(25.099182%, 43.528748%, 69.018555%)" d="M 740.792969 2469.1875 C 739.328125 2448.027344 728.746094 2431.152344 712.292969 2419.328125 C 730.011719 2406.238281 739.820312 2386.515625 740.980469 2363.910156 C 742.066406 2342.925781 739.878906 2321.386719 730.257812 2302.453125 C 708.960938 2260.558594 651.589844 2251.921875 615.949219 2280.210938 C 594.277344 2297.414062 587.628906 2324.023438 587.628906 2350.480469 C 587.628906 2374.386719 592.0625 2399.699219 611.082031 2414.863281 C 594.070312 2427.808594 585.160156 2447.425781 583.40625 2469.105469 C 582.179688 2484.289062 582.589844 2500.480469 583.761719 2515.65625 C 585.175781 2533.929688 589.84375 2552.535156 602.769531 2566.164062 C 617.847656 2582.0625 641.234375 2585.777344 662.109375 2585.890625 C 683.078125 2585.773438 704.96875 2581.75 720.496094 2566.582031 C 734.046875 2553.351562 738.710938 2534.023438 740.398438 2515.800781 C 741.804688 2500.613281 741.847656 2484.414062 740.792969 2469.191406 " fill-opacity="1" fill-rule="nonzero"/></g><g clip-path="url(#clip-21)"><path fill="rgb(13.729858%, 12.939453%, 12.939453%)" d="M 754.199219 2465.835938 C 752.726562 2444.675781 742.152344 2427.800781 725.699219 2415.972656 C 743.417969 2402.886719 753.226562 2383.164062 754.386719 2360.554688 C 755.472656 2339.570312 753.285156 2318.035156 743.664062 2299.101562 C 722.367188 2257.203125 664.992188 2248.570312 629.355469 2276.855469 C 607.683594 2294.058594 601.035156 2320.671875 601.035156 2347.121094 C 601.035156 2371.035156 605.46875 2396.339844 624.488281 2411.511719 C 607.476562 2424.453125 598.566406 2444.070312 596.8125 2465.75 C 595.582031 2480.929688 595.992188 2497.121094 597.167969 2512.296875 C 598.582031 2530.570312 603.25 2549.179688 616.175781 2562.808594 C 631.253906 2578.703125 654.640625 2582.425781 675.515625 2582.535156 C 696.476562 2582.417969 718.375 2578.390625 733.902344 2563.230469 C 747.445312 2549.996094 752.117188 2530.667969 753.796875 2512.445312 C 755.210938 2497.261719 755.253906 2481.0625 754.199219 2465.835938 " fill-opacity="1" fill-rule="nonzero"/></g><g clip-path="url(#clip-22)"><path fill="rgb(78.039551%, 18.429565%, 23.139954%)" d="M 1166.753906 2771.5625 C 1166.570312 2767.378906 1166.386719 2763.199219 1166.199219 2759.015625 C 1165.90625 2752.441406 1165.613281 2745.863281 1165.320312 2739.292969 C 1165.277344 2738.28125 1164.933594 2737.46875 1164.417969 2736.851562 C 1163.769531 2735.933594 1162.734375 2735.28125 1161.285156 2735.246094 C 1121.398438 2734.261719 1081.507812 2733.277344 1041.617188 2732.296875 C 1037.730469 2732.203125 1033.839844 2732.105469 1029.953125 2732.007812 C 1027.65625 2731.953125 1026.042969 2733.898438 1025.917969 2736.054688 C 1025.113281 2749.765625 1024.304688 2763.476562 1023.5 2777.1875 C 1023.363281 2779.488281 1025.441406 2781.105469 1027.53125 2781.234375 C 1056.796875 2783.011719 1086.0625 2784.792969 1115.324219 2786.574219 C 1106.675781 2816.683594 1098.027344 2846.789062 1089.378906 2876.894531 C 1076.65625 2921.179688 1063.929688 2968.707031 1051.207031 3012.992188 C 1049.953125 3017.375 1048.691406 3021.757812 1047.4375 3026.132812 C 1046.707031 3028.667969 1048.726562 3031.253906 1051.328125 3031.253906 C 1068.519531 3031.253906 1085.796875 3029.910156 1102.902344 3028.023438 C 1104.644531 3027.828125 1106.371094 3025.984375 1106.792969 3024.238281 C 1114.46875 2992.453125 1122.144531 2961.472656 1129.820312 2929.683594 C 1140.835938 2884.089844 1151.847656 2838.488281 1162.859375 2792.890625 C 1164.167969 2787.476562 1165.476562 2782.058594 1166.78125 2776.644531 C 1167.167969 2775.042969 1166.832031 2773.175781 1166.757812 2771.5625 " fill-opacity="1" fill-rule="nonzero"/></g><g clip-path="url(#clip-23)"><path fill="rgb(13.729858%, 12.939453%, 12.939453%)" d="M 1176.855469 2764.066406 C 1176.671875 2759.882812 1176.488281 2755.699219 1176.296875 2751.511719 C 1176.007812 2744.9375 1175.714844 2738.363281 1175.421875 2731.792969 C 1175.375 2730.78125 1175.03125 2729.972656 1174.519531 2729.351562 C 1173.871094 2728.433594 1172.828125 2727.78125 1171.390625 2727.746094 C 1131.5 2726.761719 1091.605469 2725.78125 1051.71875 2724.796875 C 1047.832031 2724.699219 1043.941406 2724.605469 1040.054688 2724.511719 C 1037.757812 2724.453125 1036.144531 2726.394531 1036.019531 2728.554688 C 1035.214844 2742.265625 1034.40625 2755.976562 1033.597656 2769.6875 C 1033.464844 2771.984375 1035.542969 2773.605469 1037.632812 2773.730469 C 1066.898438 2775.511719 1096.160156 2777.292969 1125.421875 2779.074219 C 1116.773438 2809.179688 1108.125 2839.285156 1099.476562 2869.398438 C 1086.75 2913.683594 1074.03125 2961.210938 1061.308594 3005.496094 C 1060.046875 3009.878906 1058.792969 3014.257812 1057.53125 3018.640625 C 1056.804688 3021.171875 1058.824219 3023.761719 1061.421875 3023.761719 C 1078.617188 3023.761719 1095.890625 3022.410156 1113 3020.523438 C 1114.742188 3020.328125 1116.46875 3018.484375 1116.894531 3016.746094 C 1124.570312 2984.953125 1132.246094 2953.976562 1139.921875 2922.1875 C 1150.933594 2876.589844 1161.945312 2830.988281 1172.957031 2785.394531 C 1174.265625 2779.976562 1175.570312 2774.5625 1176.878906 2769.148438 C 1177.265625 2767.546875 1176.929688 2765.679688 1176.855469 2764.066406 " fill-opacity="1" fill-rule="nonzero"/></g><g clip-path="url(#clip-24)"><path fill="rgb(78.039551%, 18.429565%, 23.139954%)" d="M 997.421875 590.40625 C 997.421875 590.40625 1007.558594 586.78125 1007.558594 598.617188 L 1018.359375 907.390625 C 1018.359375 924.605469 1009.164062 922.738281 1009.164062 922.738281 L 956.242188 920.585938 C 944.363281 920.585938 943.34375 909.546875 943.34375 909.546875 L 952.761719 835.289062 C 952.761719 835.289062 974.601562 656.710938 969.042969 653.484375 C 963.484375 650.253906 936.992188 665.902344 936.992188 665.902344 C 920.058594 667.5625 906.765625 641.285156 906.765625 641.285156 C 906.765625 641.285156 957.609375 601.558594 997.421875 590.402344 " fill-opacity="1" fill-rule="nonzero"/></g><g clip-path="url(#clip-25)"><path fill="rgb(13.729858%, 12.939453%, 12.939453%)" d="M 1002.828125 577.492188 C 1002.828125 577.492188 1012.964844 573.871094 1012.964844 585.707031 L 1023.757812 894.484375 C 1023.757812 911.695312 1014.566406 909.832031 1014.566406 909.832031 L 961.644531 907.679688 C 949.761719 907.679688 948.742188 896.636719 948.742188 896.636719 L 958.160156 822.390625 C 958.160156 822.390625 980.003906 643.804688 974.445312 640.582031 C 968.882812 637.351562 942.390625 653 942.390625 653 C 925.460938 654.65625 912.164062 628.382812 912.164062 628.382812 C 912.164062 628.382812 963.007812 588.652344 1002.828125 577.496094 " fill-opacity="1" fill-rule="nonzero"/></g><g clip-path="url(#clip-26)"><path fill="rgb(78.039551%, 18.429565%, 23.139954%)" d="M 1114.0625 590.40625 C 1114.0625 590.40625 1124.199219 586.78125 1124.199219 598.617188 L 1135 907.390625 C 1135 924.605469 1125.800781 922.738281 1125.800781 922.738281 L 1072.878906 920.585938 C 1061 920.585938 1059.980469 909.546875 1059.980469 909.546875 L 1069.398438 835.289062 C 1069.398438 835.289062 1091.242188 656.710938 1085.679688 653.484375 C 1080.121094 650.253906 1053.628906 665.902344 1053.628906 665.902344 C 1036.695312 667.5625 1023.402344 641.285156 1023.402344 641.285156 C 1023.402344 641.285156 1074.246094 601.558594 1114.0625 590.402344 " fill-opacity="1" fill-rule="nonzero"/></g><g clip-path="url(#clip-27)"><path fill="rgb(13.729858%, 12.939453%, 12.939453%)" d="M 1119.464844 577.492188 C 1119.464844 577.492188 1129.601562 573.871094 1129.601562 585.707031 L 1140.394531 894.484375 C 1140.394531 911.695312 1131.207031 909.832031 1131.207031 909.832031 L 1078.28125 907.679688 C 1066.402344 907.679688 1065.378906 896.636719 1065.378906 896.636719 L 1074.796875 822.390625 C 1074.796875 822.390625 1096.640625 643.804688 1091.082031 640.582031 C 1085.519531 637.351562 1059.027344 653 1059.027344 653 C 1042.097656 654.65625 1028.800781 628.382812 1028.800781 628.382812 C 1028.800781 628.382812 1079.644531 588.652344 1119.46875 577.496094 " fill-opacity="1" fill-rule="nonzero"/></g><g clip-path="url(#clip-28)"><path fill="rgb(78.039551%, 18.429565%, 23.139954%)" d="M 1729.214844 330.800781 C 1729.214844 330.800781 1739.351562 327.179688 1739.351562 339.011719 L 1750.152344 647.789062 C 1750.152344 665.003906 1740.953125 663.136719 1740.953125 663.136719 L 1688.035156 660.984375 C 1676.15625 660.984375 1675.132812 649.941406 1675.132812 649.941406 L 1684.550781 575.6875 C 1684.550781 575.6875 1706.394531 397.109375 1700.835938 393.878906 C 1695.273438 390.648438 1668.78125 406.300781 1668.78125 406.300781 C 1651.851562 407.960938 1638.554688 381.683594 1638.554688 381.683594 C 1638.554688 381.683594 1689.398438 341.953125 1729.214844 330.800781 " fill-opacity="1" fill-rule="nonzero"/></g><g clip-path="url(#clip-29)"><path fill="rgb(13.729858%, 12.939453%, 12.939453%)" d="M 1734.617188 317.890625 C 1734.617188 317.890625 1744.753906 314.269531 1744.753906 326.105469 L 1755.550781 634.882812 C 1755.550781 652.09375 1746.359375 650.230469 1746.359375 650.230469 L 1693.433594 648.074219 C 1681.554688 648.074219 1680.535156 637.035156 1680.535156 637.035156 L 1689.953125 562.785156 C 1689.953125 562.785156 1711.796875 384.203125 1706.234375 380.980469 C 1700.675781 377.75 1674.183594 393.398438 1674.183594 393.398438 C 1657.25 395.054688 1643.957031 368.78125 1643.957031 368.78125 C 1643.957031 368.78125 1694.800781 329.046875 1734.621094 317.894531 " fill-opacity="1" fill-rule="nonzero"/></g><g clip-path="url(#clip-30)"><path fill="rgb(25.099182%, 43.528748%, 69.018555%)" d="M 1948.117188 618.28125 C 1946.910156 609.25 1944.988281 600.253906 1942.601562 591.460938 C 1942.320312 590.445312 1941.367188 589.722656 1940.316406 589.722656 L 1858.648438 589.722656 C 1855.398438 561.695312 1878.960938 543.207031 1896.625 525.082031 C 1907.726562 513.691406 1917.957031 501.425781 1925.46875 487.324219 C 1934.59375 470.203125 1938.757812 451.074219 1939.210938 431.753906 C 1939.667969 411.734375 1935.828125 390.945312 1925 373.863281 C 1915.148438 358.328125 1899.308594 348.25 1881.253906 345.363281 C 1843.761719 339.375 1804.375 361.761719 1796.980469 400.316406 C 1794.351562 414.046875 1795.691406 428.886719 1795.691406 442.800781 C 1795.691406 444.191406 1796.777344 445.039062 1798.058594 445.171875 C 1813.589844 446.75 1829.121094 448.328125 1844.65625 449.910156 C 1845.941406 450.039062 1847.019531 448.730469 1847.019531 447.539062 C 1847.019531 436.722656 1846.882812 425.890625 1847.039062 415.070312 C 1847.195312 404.65625 1852.054688 397.625 1862.351562 395.765625 C 1866.640625 394.992188 1871.609375 394.742188 1875.789062 396.054688 C 1880.78125 397.625 1884.300781 402.378906 1886.742188 406.734375 C 1895.359375 422.121094 1891.476562 443.707031 1885.3125 459.289062 C 1879.222656 474.6875 1868.332031 487.679688 1857.136719 499.613281 C 1836.332031 521.792969 1812.789062 542.324219 1802.601562 571.964844 C 1798.277344 584.5625 1798.015625 597.460938 1797.089844 610.570312 C 1796.308594 621.648438 1795.527344 632.722656 1794.746094 643.796875 C 1794.660156 645.058594 1795.890625 646.207031 1797.109375 646.167969 C 1843.097656 644.667969 1889.085938 643.164062 1935.070312 641.660156 C 1937.457031 641.582031 1939.828125 641.503906 1942.214844 641.429688 C 1951.855469 640.886719 1948.894531 624.128906 1948.121094 618.28125 " fill-opacity="1" fill-rule="nonzero"/></g><g clip-path="url(#clip-31)"><path fill="rgb(13.729858%, 12.939453%, 12.939453%)" d="M 1958.519531 608.796875 C 1957.316406 599.765625 1955.390625 590.769531 1953.003906 581.980469 C 1952.722656 580.960938 1951.769531 580.238281 1950.726562 580.238281 L 1869.050781 580.238281 C 1865.800781 552.210938 1889.363281 533.71875 1907.027344 515.597656 C 1918.128906 504.210938 1928.355469 491.941406 1935.871094 477.84375 C 1945 460.722656 1949.160156 441.585938 1949.613281 422.273438 C 1950.078125 402.257812 1946.226562 381.460938 1935.398438 364.378906 C 1925.550781 348.847656 1909.710938 338.769531 1891.65625 335.882812 C 1854.164062 329.890625 1814.777344 352.28125 1807.382812 390.835938 C 1804.753906 404.558594 1806.09375 419.410156 1806.09375 433.320312 C 1806.09375 434.710938 1807.179688 435.558594 1808.460938 435.6875 C 1823.992188 437.269531 1839.527344 438.851562 1855.058594 440.425781 C 1856.34375 440.5625 1857.421875 439.253906 1857.421875 438.058594 C 1857.421875 427.234375 1857.285156 416.40625 1857.445312 405.585938 C 1857.597656 395.171875 1862.453125 388.140625 1872.753906 386.285156 C 1877.042969 385.511719 1882.015625 385.257812 1886.191406 386.574219 C 1891.183594 388.140625 1894.707031 392.894531 1897.144531 397.253906 C 1905.757812 412.640625 1901.886719 434.226562 1895.71875 449.808594 C 1889.625 465.207031 1878.734375 478.195312 1867.542969 490.128906 C 1846.734375 512.308594 1823.191406 532.847656 1813.007812 562.488281 C 1808.679688 575.078125 1808.417969 587.976562 1807.492188 601.089844 C 1806.714844 612.164062 1805.929688 623.238281 1805.148438 634.316406 C 1805.0625 635.582031 1806.292969 636.726562 1807.515625 636.683594 C 1853.5 635.183594 1899.488281 633.679688 1945.480469 632.179688 C 1947.859375 632.105469 1950.238281 632.019531 1952.617188 631.945312 C 1962.257812 631.402344 1959.304688 614.644531 1958.523438 608.796875 " fill-opacity="1" fill-rule="nonzero"/></g><g clip-path="url(#clip-32)"><path fill="rgb(25.099182%, 43.528748%, 69.018555%)" d="M 1766.414062 3169.132812 C 1766.6875 3158.296875 1766.960938 3147.453125 1767.234375 3136.609375 C 1767.300781 3134.023438 1767.367188 3131.425781 1767.433594 3128.835938 C 1767.511719 3121.355469 1768.992188 3113.804688 1774.4375 3108.324219 C 1778.207031 3104.527344 1783.464844 3102.757812 1788.613281 3101.808594 C 1804.230469 3098.917969 1809.027344 3115.4375 1809.320312 3127.707031 C 1809.710938 3144.125 1809.328125 3160.597656 1809.328125 3177.023438 C 1809.328125 3189.152344 1806.253906 3205.984375 1792.800781 3210.125 C 1787.433594 3211.777344 1780.578125 3210.878906 1775.675781 3208.234375 C 1770.214844 3205.273438 1767.886719 3199.386719 1766.746094 3193.613281 C 1765.195312 3185.769531 1766.210938 3177.066406 1766.414062 3169.132812 Z M 1867.789062 3106.417969 C 1864.28125 3082.261719 1850.519531 3060.433594 1826.195312 3053.304688 C 1803.761719 3046.734375 1777.636719 3052.199219 1762.027344 3069.265625 C 1763.015625 3056.101562 1763.996094 3042.933594 1764.980469 3029.761719 C 1765.742188 3019.597656 1765.675781 3008.984375 1771.425781 3000.109375 C 1777.191406 2991.210938 1790.210938 2989.058594 1799.824219 2991.859375 C 1813.964844 2995.96875 1811.089844 3017.503906 1811.089844 3028.785156 C 1811.089844 3030.542969 1812.699219 3032.496094 1814.609375 3032.289062 C 1829.910156 3030.65625 1845.222656 3029.019531 1860.527344 3027.378906 C 1862.433594 3027.171875 1864.042969 3025.9375 1864.042969 3023.867188 C 1864.042969 3010.558594 1863.242188 2997.765625 1857.871094 2985.359375 C 1852.257812 2972.421875 1842.996094 2961.667969 1831.617188 2953.421875 C 1821.707031 2946.242188 1809.894531 2941.183594 1797.800781 2939.207031 C 1784.445312 2937.023438 1769.945312 2938.789062 1757.074219 2942.683594 C 1741.117188 2947.519531 1727.320312 2957.34375 1717.980469 2971.164062 C 1707.75 2986.304688 1704.222656 3005.0625 1704.101562 3023.054688 C 1704.089844 3023.195312 1704.085938 3023.339844 1704.09375 3023.492188 C 1705.433594 3056.949219 1706.777344 3090.398438 1708.121094 3123.855469 C 1708.8125 3141.15625 1709.507812 3158.453125 1710.199219 3175.753906 C 1710.429688 3181.484375 1710.4375 3187.230469 1710.941406 3192.949219 C 1712.164062 3206.839844 1715.921875 3220.695312 1723.621094 3232.445312 C 1739.570312 3256.789062 1768.683594 3263.59375 1796.191406 3262.140625 C 1809.570312 3261.421875 1823.113281 3258.75 1834.902344 3252.15625 C 1845.332031 3246.328125 1853.371094 3237.097656 1858.164062 3226.214844 C 1863.507812 3214.082031 1864.089844 3201.652344 1864.945312 3188.652344 C 1865.445312 3181.066406 1865.945312 3173.484375 1866.445312 3165.894531 C 1867.738281 3146.203125 1870.632812 3126.070312 1867.785156 3106.417969 " fill-opacity="1" fill-rule="nonzero"/></g><g clip-path="url(#clip-33)"><path fill="rgb(13.729858%, 12.939453%, 12.939453%)" d="M 1776.257812 3161.410156 C 1776.53125 3150.570312 1776.804688 3139.726562 1777.078125 3128.890625 C 1777.148438 3126.292969 1777.214844 3123.707031 1777.277344 3121.109375 C 1777.359375 3113.628906 1778.839844 3106.085938 1784.277344 3100.597656 C 1788.058594 3096.808594 1793.3125 3095.039062 1798.460938 3094.085938 C 1814.078125 3091.199219 1818.867188 3107.71875 1819.164062 3119.980469 C 1819.554688 3136.40625 1819.171875 3152.878906 1819.171875 3169.304688 C 1819.171875 3181.429688 1816.097656 3198.265625 1802.640625 3202.40625 C 1797.28125 3204.050781 1790.425781 3203.15625 1785.523438 3200.503906 C 1780.0625 3197.554688 1777.734375 3191.664062 1776.59375 3185.886719 C 1775.039062 3178.046875 1776.050781 3169.34375 1776.257812 3161.410156 Z M 1877.632812 3098.691406 C 1874.136719 3074.535156 1860.371094 3052.707031 1836.039062 3045.585938 C 1813.613281 3039.011719 1787.480469 3044.480469 1771.875 3061.546875 C 1772.863281 3048.378906 1773.847656 3035.207031 1774.835938 3022.042969 C 1775.59375 3011.875 1775.527344 3001.265625 1781.273438 2992.390625 C 1787.042969 2983.484375 1800.0625 2981.335938 1809.675781 2984.132812 C 1823.808594 2988.25 1820.941406 3009.777344 1820.941406 3021.058594 C 1820.941406 3022.820312 1822.542969 3024.773438 1824.453125 3024.570312 C 1839.765625 3022.929688 1855.066406 3021.296875 1870.378906 3019.65625 C 1872.28125 3019.453125 1873.890625 3018.214844 1873.890625 3016.144531 C 1873.890625 3002.832031 1873.09375 2990.046875 1867.714844 2977.636719 C 1862.109375 2964.695312 1852.84375 2953.949219 1841.460938 2945.699219 C 1831.558594 2938.523438 1819.738281 2933.460938 1807.644531 2931.484375 C 1794.300781 2929.300781 1779.796875 2931.066406 1766.921875 2934.964844 C 1750.964844 2939.792969 1737.167969 2949.625 1727.832031 2963.441406 C 1717.601562 2978.578125 1714.070312 2997.339844 1713.949219 3015.332031 C 1713.941406 3015.46875 1713.933594 3015.621094 1713.941406 3015.769531 C 1715.285156 3049.21875 1716.625 3082.675781 1717.964844 3116.128906 C 1718.660156 3133.425781 1719.355469 3150.734375 1720.046875 3168.03125 C 1720.277344 3173.757812 1720.285156 3179.511719 1720.789062 3185.222656 C 1722.011719 3199.117188 1725.769531 3212.972656 1733.46875 3224.726562 C 1749.417969 3249.070312 1778.535156 3255.875 1806.039062 3254.410156 C 1819.417969 3253.699219 1832.960938 3251.023438 1844.753906 3244.4375 C 1855.183594 3238.609375 1863.226562 3229.371094 1868.019531 3218.496094 C 1873.363281 3206.359375 1873.945312 3193.933594 1874.800781 3180.929688 C 1875.292969 3173.347656 1875.800781 3165.757812 1876.300781 3158.171875 C 1877.59375 3138.484375 1880.480469 3118.347656 1877.632812 3098.691406 " fill-opacity="1" fill-rule="nonzero"/></g></svg>