<?xml version="1.0" encoding="UTF-8"?><svg xmlns="http://www.w3.org/2000/svg" xmlns:xlink="http://www.w3.org/1999/xlink" contentScriptType="text/ecmascript" width="3582.75" zoomAndPan="magnify" contentStyleType="text/css" viewBox="0 0 3582.75 3582.75001" height="3582.75001" preserveAspectRatio="xMidYMid meet" version="1.0"><defs><clipPath id="clip-0"><path d="M 1260 89 L 1746.304688 89 L 1746.304688 3462 L 1260 3462 Z M 1260 89 " clip-rule="nonzero"/></clipPath></defs><path fill="rgb(0%, 0%, 0%)" d="M 1503.382812 96.476562 C 1497.773438 411.664062 1271.074219 443.253906 1267.925781 578.898438 C 1264.773438 714.433594 1335.589844 723.882812 1362.371094 723.882812 C 1389.335938 723.882812 1445.925781 704.113281 1444.191406 645.078125 C 1442.554688 589.1875 1422.136719 572.566406 1444.191406 487.460938 C 1418.984375 541.042969 1387.554688 566.496094 1349.746094 572.800781 C 1384.40625 591.714844 1401.707031 610.371094 1403.277344 619.824219 C 1405.015625 630.253906 1400.28125 676.425781 1359.320312 676.425781 C 1315.210938 676.425781 1300.957031 634.265625 1308.832031 572.800781 C 1317.105469 508.234375 1469.347656 402.570312 1485.105469 336.378906 C 1485.105469 468.757812 1475.660156 856.367188 1476.398438 843.203125 C 1465.144531 1250.015625 1429.394531 1507.8125 1429.394531 1873.785156 C 1429.394531 2238.101562 1429.59375 2579.300781 1465.082031 3126.875 C 1391.625 3144.734375 1335.816406 3207.695312 1335.816406 3286.667969 C 1335.816406 3379.402344 1411.121094 3454.730469 1503.816406 3454.730469 C 1596.515625 3454.730469 1671.382812 3379.402344 1671.382812 3286.667969 C 1671.382812 3207.542969 1615.699219 3144.589844 1542.117188 3126.875 C 1577.609375 2579.347656 1577.808594 2238.101562 1577.808594 1873.785156 C 1577.808594 1507.789062 1541.621094 1250.027344 1530.367188 843.203125 C 1531.109375 856.390625 1521.664062 468.777344 1521.664062 336.378906 C 1537.417969 402.570312 1690.09375 508.234375 1698.367188 572.800781 C 1706.242188 634.261719 1691.992188 676.425781 1647.878906 676.425781 C 1606.917969 676.425781 1601.75 630.253906 1603.484375 619.824219 C 1605.0625 610.371094 1622.359375 591.714844 1657.015625 572.800781 C 1619.207031 566.5 1587.777344 541.046875 1562.570312 487.460938 C 1584.625 572.566406 1564.207031 589.1875 1562.570312 645.078125 C 1560.84375 704.117188 1617.429688 723.882812 1644.394531 723.882812 C 1671.175781 723.882812 1742.425781 714.429688 1739.277344 578.898438 C 1736.121094 443.257812 1508.988281 411.667969 1503.378906 96.476562 Z M 1503.820312 3190.835938 C 1556.792969 3190.835938 1599.570312 3233.632812 1599.570312 3286.621094 C 1599.570312 3339.613281 1556.792969 3382.847656 1503.820312 3382.847656 C 1450.847656 3382.847656 1407.632812 3339.617188 1407.632812 3286.621094 C 1407.632812 3233.628906 1450.847656 3190.835938 1503.820312 3190.835938 Z M 1503.820312 3190.835938 " fill-opacity="1" fill-rule="evenodd"/><g clip-path="url(#clip-0)"><path stroke-linecap="butt" transform="matrix(5.023148, 0, 0, 5.025026, -1139.494344, -93.958329)" fill="none" stroke-linejoin="round" d="M 526.139632 37.897295 C 525.022927 100.620852 479.89202 106.907355 479.265234 133.901153 C 478.637671 160.873184 492.735684 162.753616 498.067251 162.753616 C 503.435368 162.753616 514.701181 158.819401 514.355904 147.071172 C 514.030069 135.948717 509.965293 132.641053 514.355904 115.704729 C 509.33773 126.367765 503.08076 131.433037 495.553887 132.687695 C 502.453974 136.451668 505.898185 140.164335 506.2108 142.045545 C 506.556854 144.121094 505.614343 153.309479 497.459907 153.309479 C 488.678685 153.309479 485.841041 144.919441 487.408783 132.687695 C 489.055845 119.838725 519.363969 98.81116 522.501008 85.638809 C 522.501008 111.982733 520.620651 189.118529 520.767627 186.498829 C 518.527218 267.456122 511.410167 318.758718 511.410167 391.588721 C 511.410167 464.089124 511.449827 531.989115 518.514775 640.958546 C 503.891071 644.512633 492.780788 657.042108 492.780788 672.757978 C 492.780788 691.212485 507.772321 706.203079 526.225951 706.203079 C 544.680359 706.203079 559.584795 691.212485 559.584795 672.757978 C 559.584795 657.011791 548.499397 644.48387 533.850808 640.958546 C 540.916534 531.998444 540.956194 464.089124 540.956194 391.588721 C 540.956194 318.754054 533.752046 267.458454 531.511637 186.498829 C 531.65939 189.123193 529.779033 111.98662 529.779033 85.638809 C 532.915295 98.81116 563.309738 119.838725 564.9568 132.687695 C 566.524542 144.918664 563.687676 153.309479 554.905676 153.309479 C 546.75124 153.309479 545.72241 144.121094 546.067686 142.045545 C 546.381857 140.164335 549.82529 136.451668 556.724599 132.687695 C 549.197727 131.433815 542.940756 126.368542 537.922582 115.704729 C 542.313193 132.641053 538.248417 135.948717 537.922582 147.071172 C 537.578861 158.820178 548.843896 162.753616 554.212013 162.753616 C 559.54358 162.753616 573.727912 160.872406 573.101127 133.901153 C 572.472786 106.908133 527.255559 100.621629 526.138854 37.897295 Z M 526.226729 653.687026 C 536.772438 653.687026 545.288481 662.203773 545.288481 672.74865 C 545.288481 683.294304 536.772438 691.898116 526.226729 691.898116 C 515.68102 691.898116 507.07788 683.295082 507.07788 672.74865 C 507.07788 662.202995 515.68102 653.687026 526.226729 653.687026 Z M 526.226729 653.687026 " stroke="rgb(0%, 0%, 0%)" stroke-width="2.751" stroke-opacity="1" stroke-miterlimit="4"/></g></svg>